<svg xmlns="http://www.w3.org/2000/svg" width="24" height="25" fill="none" viewBox="0 0 24 25">
  <path stroke="#3D3B3B" stroke-linecap="round" stroke-linejoin="round" stroke-width="1.5" d="M21 8.5v8a5 5 0 0 1-5 5H8a5 5 0 0 1-5-5v-8a5 5 0 0 1 5-5h8a5 5 0 0 1 5 5Z"/>
  <path stroke="#3D3B3B" stroke-linecap="round" stroke-linejoin="round" stroke-width="1.5" d="M9.099 12.326c2.535 0 2.535 4.174 0 4.174H6v-4.174m3.099 0H6m3.099 0c2.535 0 2.535-3.826 0-3.826H6v3.826M13 14a2.5 2.5 0 0 1 5 0h-5Zm0 0a2.5 2.5 0 0 0 2.5 2.5c.928 0 1.49-.322 1.813-.62M17 9h-3"/>
</svg>
