<svg xmlns="http://www.w3.org/2000/svg" width="24" height="24" fill="none" viewBox="0 0 24 24">
  <path fill="#737272" d="M23.54 6.32a1.125 1.125 0 0 0-1.04-.695h-2.642a4.943 4.943 0 0 0-4.094-2.25 4.768 4.768 0 0 0-3.431 1.393 4.864 4.864 0 0 0-1.458 3.482v.074C7.422 7.239 4.652 4.489 4.622 4.458a1.125 1.125 0 0 0-1.92.692c-.59 6.579 2.312 10.105 3.944 11.543-1.359 1.385-3.271 2.121-3.29 2.129a1.125 1.125 0 0 0-.543 1.678c.187.27 1.26 1.625 4.687 1.625 6.773 0 12.44-5.18 13.087-11.871l2.708-2.708a1.125 1.125 0 0 0 .245-1.226Zm-4.835 2.635c-.194.194-.31.451-.327.724-.365 5.718-5.142 10.196-10.878 10.196a8.506 8.506 0 0 1-1.17-.074c.982-.624 2.081-1.513 2.857-2.676a1.125 1.125 0 0 0-.365-1.594c-.011-.007-1.156-.702-2.197-2.29-1.04-1.586-1.618-3.468-1.73-5.604C6.503 8.85 9 10.387 11.813 10.86a1.125 1.125 0 0 0 1.312-1.11v-1.5a2.623 2.623 0 0 1 .788-1.881 2.538 2.538 0 0 1 1.824-.744 2.703 2.703 0 0 1 2.42 1.576 1.125 1.125 0 0 0 1.032.674h.592l-1.076 1.08Z"/>
</svg>
