<svg xmlns="http://www.w3.org/2000/svg" width="24" height="25" fill="none" viewBox="0 0 24 25">
  <path fill="#3D3B3B" d="M19.868 3.125H4.132c-.832 0-1.507.675-1.507 1.507v15.736c0 .832.675 1.507 1.507 1.507h15.736c.832 0 1.507-.675 1.507-1.507V4.632c0-.832-.675-1.507-1.507-1.507Zm0 17.25c-10.495-.002-15.743-.005-15.743-.007.002-10.495.005-15.743.007-15.743 10.495.002 15.743.005 15.743.007a13277.3 13277.3 0 0 1-.007 15.743ZM5.405 10.154h2.782v8.948H5.405v-8.948ZM6.797 8.93a1.614 1.614 0 0 0 .617-3.102 1.613 1.613 0 1 0-.617 3.102Zm5.913 5.745c0-1.167.223-2.297 1.669-2.297 1.425 0 1.446 1.334 1.446 2.372v4.352h2.78v-4.908c0-2.409-.52-4.263-3.335-4.263-1.353 0-2.26.743-2.633 1.446H12.6v-1.223H9.93v8.948h2.78v-4.427Z"/>
</svg>
