<svg xmlns="http://www.w3.org/2000/svg" width="24" height="25" fill="none" viewBox="0 0 24 25">
  <path fill="#3D3B3B" d="M12 2C6.203 2 1.5 6.703 1.5 12.5S6.203 23 12 23s10.5-4.698 10.5-10.5S17.797 2 12 2Zm6.667 4.84a8.736 8.736 0 0 1 2.062 5.08c-1.892-.098-4.156-.098-5.972.071-.23-.58-.465-1.148-.722-1.695 2.094-.908 3.707-2.1 4.632-3.456ZM12 3.75a8.71 8.71 0 0 1 5.584 2.013c-.952 1.202-2.445 2.25-4.304 3.04-1.018-1.881-2.188-3.5-3.436-4.774A8.79 8.79 0 0 1 12 3.749Zm-3.96.957c1.264 1.258 2.45 2.86 3.49 4.734-1.975.604-4.239.95-6.655.95-.46 0-.908-.017-1.35-.044a8.755 8.755 0 0 1 4.515-5.64Zm-4.774 7.377c.498.022 1.001.033 1.51.028 2.756-.033 5.32-.465 7.525-1.172.208.432.405.875.59 1.329a5.41 5.41 0 0 0-.782.234c-3.013 1.266-5.386 3.305-6.671 5.772A8.719 8.719 0 0 1 3.25 12.5c0-.14.005-.279.016-.416ZM12 21.25a8.699 8.699 0 0 1-5.365-1.843c1.165-2.308 3.243-4.219 5.863-5.403.246-.115.574-.208.951-.29.313.864.592 1.76.837 2.69a31.79 31.79 0 0 1 .808 4.272A8.678 8.678 0 0 1 12 21.25Zm4.73-1.394a30.34 30.34 0 0 0-1.444-6.388c1.718-.14 3.774-.12 5.41 0a8.741 8.741 0 0 1-3.965 6.388Z"/>
</svg>
